# xmcd CD database file generated by Grip 2.95
# 
# Track frame offsets:
#       150
#       20812
#       44960
# 
# Disc length: 913 seconds
# 
# Revision: 3
# Processed by: cddbd v1.4b42PL1 Copyright (c) Steve Scherf et al.
# Submitted via: Grip 2.95
# 
DISCID=29038f03
DTITLE=Mariah Carey - Can't Take That Away
DYEAR=2001
DGENRE=Rock
TTITLE0=Can't Take That Away (Mariah's Theme)
TTITLE1=Crybaby Featuring Snoop Dogg
TTITLE2=Love Hangover - Heartbraker
EXTD=YEAR: 2001 ID3G:  17
EXTT0=
EXTT1=
EXTT2=
PLAYORDER=
